<svg xmlns="http://www.w3.org/2000/svg" width="655" height="680" viewBox="0 0 655 680" fill="none">
    <g clip-path="url(#clip0_206_65)">
        <path d="M68.4732 194.45C64.3327 167.364 82.7634 141.991 109.802 137.554L345.207 98.9233C350.697 98.0224 356.299 98.0441 361.782 98.9873L584.136 137.242C610.992 141.862 629.202 167.136 625.084 194.073L597.401 375.169C596.802 379.084 595.741 382.914 594.239 386.579L505.573 602.87C500.415 615.452 490.355 625.391 477.711 630.396L371.807 672.316C360.042 676.973 346.949 676.996 335.167 672.381L226.773 629.917C214.729 625.199 204.982 615.996 199.58 604.243L99.9335 387.445C97.9874 383.211 96.6427 378.725 95.9386 374.119L68.4732 194.45Z" fill="#8E0991"/>
        <path d="M247.401 25.3828C264.496 3.94987 295.662 0.280416 317.268 17.1567L506.174 164.711C510.547 168.127 514.321 172.247 517.342 176.903L640.73 367.101C655.569 389.975 649.346 420.521 626.741 435.766L474.599 538.378C471.308 540.597 467.765 542.417 464.044 543.798L244.464 625.324C231.716 630.057 217.591 629.394 205.343 623.488L102.193 573.748C90.8224 568.265 81.9465 558.684 77.3472 546.928L34.7052 437.932C29.9931 425.887 30.1314 412.485 35.0912 400.54L126.782 179.722C128.573 175.409 130.959 171.369 133.871 167.718L247.401 25.3828Z" fill="#00162B" fill-opacity="0.72"/>
        <path d="M251.372 259.154L250.837 394.021C250.786 406.912 247.9 416.676 242.181 423.313C236.461 429.843 228.284 433.087 217.65 433.045C209.915 433.014 203.316 431.269 197.851 427.81C192.386 424.351 187.894 419.499 184.373 413.255C182.026 409.378 179.727 406.63 177.477 405.009C175.228 403.282 172.385 402.411 168.948 402.397C164.329 402.379 160.617 403.868 157.812 406.865C155.007 409.862 153.594 413.938 153.574 419.094C153.536 428.655 157.421 437.533 165.231 445.728C171.114 451.982 178.508 456.738 187.411 459.996C196.421 463.254 206.62 464.906 218.006 464.951C239.598 465.037 256.542 458.766 268.838 446.139C281.135 433.512 287.328 415.919 287.417 393.361L287.949 259.299C287.975 252.854 286.329 247.852 283.013 244.294C279.805 240.736 275.3 238.946 269.499 238.923C263.699 238.9 259.234 240.655 256.104 244.187C252.975 247.72 251.398 252.709 251.372 259.154ZM361.593 442.962L362.151 302.455L363.762 302.462L455.845 445.914C460.009 452.376 463.697 456.849 466.91 459.332C470.231 461.709 474.254 462.906 478.981 462.925C491.334 462.974 497.54 455.64 497.599 440.923L498.319 259.328C498.343 253.205 496.805 248.419 493.703 244.969C490.709 241.52 486.473 239.784 480.994 239.762C475.516 239.741 471.266 241.442 468.244 244.868C465.33 248.294 463.861 253.068 463.837 259.191L463.281 399.215L461.509 399.208L370.225 257.37C366.382 251.339 362.801 246.813 359.483 243.792C356.165 240.771 352.089 239.251 347.255 239.232C334.257 239.18 327.728 246.727 327.668 261.874L326.95 442.825C326.926 448.84 328.411 453.626 331.405 457.183C334.506 460.633 338.796 462.369 344.275 462.39C349.753 462.412 354.003 460.71 357.025 457.285C360.047 453.752 361.569 448.978 361.593 442.962Z" fill="white"/>
    </g>
    <defs>
        <clipPath id="clip0_206_65">
            <rect width="655" height="680" fill="white"/>
        </clipPath>
    </defs>
</svg>